<svg xmlns="http://www.w3.org/2000/svg" width="44" height="44" viewBox="0 0 44 44" fill="none">
  <circle cx="22" cy="22" r="14" fill="#3B82F6" fill-opacity="0.18" />
  <path
    d="M22 7.5C29.732 7.5 36 13.768 36 21.5C36 29.232 29.732 35.5 22 35.5C14.268 35.5 8 29.232 8 21.5C8 13.768 14.268 7.5 22 7.5Z"
    fill="white"
    fill-opacity="0.9"
  />
  <path
    d="M22 9C29.1797 9 35 14.8203 35 22C35 29.1797 29.1797 35 22 35C14.8203 35 9 29.1797 9 22C9 14.8203 14.8203 9 22 9Z"
    fill="#2563EB"
    fill-opacity="0.16"
  />
  <path
    d="M22 5L28.6 22.8C28.9 23.5 28.3 24.2 27.6 24L22.8 22.6C22.3 22.5 21.8 22.6 21.5 23L18.6 26.3C18.1 26.9 17.1 26.6 17 25.8L15.6 16.6C15.5 16 15.7 15.4 16.2 15.1L22 5Z"
    fill="#1D4ED8"
  />
  <circle cx="22" cy="22" r="5.25" fill="#2563EB" stroke="white" stroke-width="2.5" />
</svg>
