<svg xmlns="http://www.w3.org/2000/svg" width="360" height="200" viewBox="104.5 3 39 22"><defs><radialGradient id="a" cx="73.48" cy="102.75" r="95.03" gradientTransform="matrix(.09989 0 0 .09872 108.86 10.69)" gradientUnits="userSpaceOnUse"><stop offset="0" stop-color="#bed223"/><stop offset=".9" stop-color="#285f32"/></radialGradient></defs><path d="M119.466 23.863c0 .29-.115.369-.295.369a.614.614 0 01-.216-.036l-.05.349c.086.028.216.042.317.042.418 0 .676-.184.676-.724v-1.187h-.431v1.187zm2.07-.669h-.424v.81a.19.19 0 01-.022.094.225.222 0 01-.209.149c-.158 0-.223-.12-.223-.32v-.733h-.424v.796c0 .426.202.597.481.597a.48.475 0 00.432-.227h.007l.022.2h.373a7.45 7.364 0 01-.014-.44v-.926zm.346-.618h.432v1.984h-.432zm1.208 1.984v-1.365h-.432v1.365zm-.216-1.537c.137 0 .23-.092.23-.213a.22.217 0 00-.23-.206c-.137 0-.23.093-.23.206 0 .12.094.213.223.213zm1.856.171h-.425v.81a.19.19 0 01-.022.094.225.222 0 01-.208.149c-.158 0-.223-.12-.223-.32v-.733h-.425v.796c0 .426.202.597.482.597a.48.475 0 00.431-.227h.007l.021.2h.374a7.45 7.364 0 01-.014-.44v-.926zm.266 1.294a.966.955 0 00.445.1c.396 0 .598-.191.598-.448 0-.2-.108-.327-.374-.42-.166-.057-.223-.092-.223-.156s.058-.106.166-.106c.115 0 .238.042.302.078l.072-.291a.918.907 0 00-.389-.085c-.338 0-.561.191-.561.455 0 .156.108.313.395.405.158.049.202.084.202.156 0 .07-.057.106-.187.106a.813.813 0 01-.366-.1zm1.892.072h.424v-.618l.158-.2.467.818h.504l-.661-1.08.625-.804h-.526l-.431.626c-.043.064-.086.135-.129.206h-.007v-.831h-.424zm2.962-1.366h-.431v.81c0 .036 0 .065-.014.094-.03.064-.094.149-.216.149-.15 0-.216-.12-.216-.32v-.733h-.431v.796c0 .426.209.597.49.597a.502.497 0 00.43-.227h.008l.02.2h.367c0-.12-.007-.263-.007-.44zm-.935-.191a.195.195 0 00.195-.2.192.192 0 00-.195-.191c-.115 0-.201.085-.201.191a.198.195 0 00.201.2zm.59 0a.196.196 0 00.202-.2c0-.106-.085-.191-.201-.191a.187.187 0 00-.194.191.19.19 0 00.194.2zm.691 1.557h.424v-.81c0-.036.007-.072.014-.094.036-.078.101-.149.216-.149.166 0 .223.12.223.298v.754h.432v-.796c0-.413-.21-.604-.482-.604a.461.461 0 00-.223.057.42.42 0 00-.173.142h-.007v-.782h-.424zm1.654 0h.425v-.79a.44.44 0 01.014-.106c.036-.078.1-.156.222-.156.151 0 .216.12.216.291v.762h.432v-.811c0-.398-.216-.59-.497-.59a.507.501 0 00-.424.22h-.007l-.022-.184h-.374c.007.12.014.263.014.434v.93zm1.56-.875h.742v.277h-.742zm1.015-1.009h.432v1.884h-.432zm.791 1.884h.425v-.79a.44.44 0 01.014-.106c.036-.078.1-.156.223-.156.15 0 .215.12.215.291v.762h.432v-.811c0-.398-.216-.59-.496-.59a.507.501 0 00-.425.22h-.007l-.022-.184h-.374c.007.12.014.263.014.434v.93zm1.568-.072a.966.955 0 00.445.1c.396 0 .598-.191.598-.448 0-.2-.108-.327-.374-.42-.166-.057-.223-.092-.223-.156s.065-.106.166-.106c.115 0 .238.042.302.078l.072-.291a.889.879 0 00-.389-.085c-.338 0-.561.191-.561.455 0 .156.108.313.395.405.158.049.202.084.202.156 0 .07-.05.106-.187.106a.813.813 0 01-.366-.1zm1.366-1.549v.255h-.187v.313h.187v.555c0 .193.036.327.115.405a.462.457 0 00.33.12c.116 0 .223-.02.274-.042v-.32c-.043.007-.072.014-.128.014-.13 0-.173-.078-.173-.242v-.49h.31v-.314h-.31v-.368zm1.403 1.621v-1.365h-.425v1.365zm-.216-1.537c.144 0 .23-.092.23-.213 0-.113-.086-.206-.223-.206s-.23.093-.23.206c0 .122.086.213.223.213zm.618-.084v.255h-.18v.313h.18v.555c0 .193.043.327.122.405a.456.451 0 00.324.12c.115 0 .222-.02.273-.042v-.32c-.036.007-.065.014-.13.014-.121 0-.164-.078-.164-.242v-.49h.31v-.314h-.31v-.368zm2.281.255h-.432v.81c0 .036 0 .065-.014.094-.029.064-.094.149-.216.149-.15 0-.215-.12-.215-.32v-.733h-.432v.796c0 .426.209.597.49.597a.502.497 0 00.431-.227h.007l.021.2h.374a7.45 7.364 0 01-.014-.44zm.402-.255v.255h-.18v.313h.18v.555c0 .193.043.327.122.405.065.07.18.12.324.12.115 0 .223-.02.273-.042v-.32c-.043.007-.071.014-.128.014-.13 0-.173-.078-.173-.242v-.49h.31v-.314h-.31v-.368z"/><path fill="url(#a)" fill-rule="evenodd" d="M116.28 26.1c-.42.48-1.3 1.26-1.89 1.78l.24.35c1.21-.93 2.9-2.58 3.41-4.05 1.18-3.33.05-5.03-.87-6.7-.75-1.34-1.3-2.54-1.34-3.38-.07-1.63.7-2.34.59-2.42-.12-.09-1.71 1.46-2.75 2.88-.99 1.35-1.57 3.03-1.5 4.1.17 2.93 3.34 4.24 4.2 6.76.45-.69.67-1.36.79-2.02.4-2.21-.52-4.06-1.22-5.37-1.16-2.16-.72-2.86-.61-3.25-.06 2 1.35 3.34 1.98 5.18a6.23 6.23 0 01-1.03 6.14z" clip-rule="evenodd" transform="translate(-5.96 -8.3)"/><path fill="#4b280a" fill-rule="evenodd" d="M111.66 23.14c-.33.3-.68.6-1.03.87 0-.28-.06-.57-.16-.87z" clip-rule="evenodd"/><path fill="#693c0f" fill-rule="evenodd" d="M112.64 22.15c-.2.22-.4.44-.62.65h-1.67a6.17 6.17 0 00-.3-.65h2.6z" clip-rule="evenodd"/><path fill="#7d5014" fill-rule="evenodd" d="M113.54 21.05c-.18.26-.39.51-.6.76h-3.06l-.46-.76h4.12z" clip-rule="evenodd"/><path fill="#916919" fill-rule="evenodd" d="M114.31 19.79a9.3 9.3 0 01-.53.92h-4.57l-.34-.5.52-.42h4.92z" clip-rule="evenodd"/><path fill="#a5821e" fill-rule="evenodd" d="M114.87 18.32c-.1.38-.23.76-.4 1.13h-4.7c.35-.32.68-.64 1-.98.05-.05.1-.1.13-.15h3.97z" clip-rule="evenodd"/><path fill="#bea023" fill-rule="evenodd" d="M115.04 16.55l.01.29a6 6 0 01-.1 1.14h-3.76c.38-.47.7-.94.96-1.43h2.9z" clip-rule="evenodd"/><path fill="#d2b923" fill-rule="evenodd" d="M114.69 14.36c.18.6.3 1.23.34 1.85h-2.7c.28-.6.47-1.22.57-1.85z" clip-rule="evenodd"/><path fill="#f0d723" fill-rule="evenodd" d="M112.48 10.47c.94 1 1.66 2.24 2.1 3.55h-1.63a8.38 8.38 0 00-.47-3.55z" clip-rule="evenodd"/><path fill="#234b96" fill-rule="evenodd" d="M109.34 18.32l-1.1.97-.67-.97h1.77z" class="st9" clip-rule="evenodd"/><path fill="#2369af" fill-rule="evenodd" d="M109.78 16.55c.15.29.28.59.38.9l-.22.27-.25.25h-2.35c-.32-.46-.63-.94-.92-1.42h3.36z" clip-rule="evenodd"/><path fill="#1e82c3" fill-rule="evenodd" d="M107.97 14.36c.56.59 1.15 1.18 1.6 1.85h-3.35c-.35-.61-.67-1.23-.9-1.85z" clip-rule="evenodd"/><path fill="#1496dc" fill-rule="evenodd" d="M106.25 7.89a8.24 8.24 0 00-.47 2.6c.03 1.24 1.02 2.56 1.87 3.53h-2.46a6.08 6.08 0 01-.37-1.98c0-1.63.46-3.1 1.43-4.15z" clip-rule="evenodd"/><path fill="#bed223" fill-rule="evenodd" d="M110.46 3.38c-.12-.09-1.71 1.46-2.75 2.88-.99 1.35-1.57 3.03-1.5 4.1a5.2 5.2 0 001.48 3.12c-.13-.19-1.17-1.53-.7-3.92.52-2.63 3.28-5.98 3.47-6.18z" clip-rule="evenodd"/><path fill="#234b96" fill-rule="evenodd" d="M132.63 11.49v2.53h2.86v-2.53zm0 2.87v6.51h2.86v-6.51zm-4.86 1.44l3.15 5.1h-2.97l-2.77-4.59h-.03v4.56h-2.86V11.5h2.86v3.87h.03l2.77-3.9h2.89zm-10.74-4.31v2.53h2.86v-2.53zm0 2.87v4.45c0 1.93-.65 2.73-1.84 4.15h.93c2.66 0 3.77-1.82 3.77-4.21v-4.4z" class="st9" clip-rule="evenodd"/></svg>